<svg xmlns="http://www.w3.org/2000/svg" viewBox="0 0 1200 900" width="1200" height="900">
<defs>
 <linearGradient id="bg" x1="0" y1="0" x2="1" y2="1"><stop offset="0" stop-color="#050912"/><stop offset="1" stop-color="#0b1220"/></linearGradient>
 <linearGradient id="bar" x1="0" y1="0" x2="1" y2="0"><stop offset="0" stop-color="#00d9ff"/><stop offset="0.55" stop-color="#39f5ff"/><stop offset="1" stop-color="#ffffff"/></linearGradient>
 <filter id="glow"><feGaussianBlur stdDeviation="5" result="b"/><feMerge><feMergeNode in="b"/><feMergeNode in="SourceGraphic"/></feMerge></filter>
 <filter id="sharpen" x="-5%" y="-5%" width="110%" height="110%"><feConvolveMatrix order="3" preserveAlpha="true" kernelMatrix="-0.1 -0.1 -0.1 -0.1 1.8 -0.1 -0.1 -0.1 -0.1"/></filter>
 <clipPath id="portraitClip"><rect x="300" y="55" width="600" height="650" rx="30"/></clipPath>
 <pattern id="grid" width="40" height="40" patternUnits="userSpaceOnUse"><path d="M40 0H0V40" fill="none" stroke="#1682a8" stroke-opacity=".16"/></pattern>
</defs>
<rect width="1200" height="900" fill="url(#bg)"/><rect width="1200" height="900" fill="url(#grid)"/>
<g font-family="monospace" fill="#63eaff" letter-spacing="3"><text x="55" y="55" font-size="18">XR PROFILE // SYSTEM BOOT</text><text x="1145" y="55" font-size="14" text-anchor="end">VIGNESHWARAN B</text><text x="55" y="95" font-size="12">SPATIAL COMPUTING</text><text x="1145" y="95" font-size="12" text-anchor="end">REAL-TIME 3D // COMPUTER VISION</text></g>
<rect x="290" y="45" width="620" height="670" rx="38" fill="#07101d" stroke="#00d9ff" stroke-opacity=".5" stroke-width="2"/>
<rect x="300" y="55" width="600" height="650" rx="30" fill="#02050a"/>
<image href="https://raw.githubusercontent.com/VigneshwaranECE/VigneshwaranECE/main/assets/xr-loading-portrait.svg" x="300" y="55" width="600" height="650" preserveAspectRatio="xMidYMid slice" clip-path="url(#portraitClip)" filter="url(#sharpen)"/>
<rect x="300" y="55" width="600" height="650" rx="30" fill="#001522" opacity=".04"/>
<g stroke="#00d9ff" stroke-width="4" fill="none"><path d="M270 115V65H320 M880 65H930V115 M270 645V695H320 M880 695H930V645"/></g>
<g stroke="#63eaff" opacity=".45"><path d="M300 190H900"/><path d="M300 380H900"/><path d="M300 570H900"/></g>
<rect x="0" y="55" width="1200" height="3" fill="#63eaff" opacity=".85" filter="url(#glow)"><animate attributeName="y" values="55;705;55" dur="3s" repeatCount="indefinite"/></rect>
<g font-family="monospace" fill="#ffffff" text-anchor="middle"><text x="600" y="765" font-size="44" font-weight="bold" letter-spacing="8">LOADING...</text><text x="600" y="795" font-size="13" fill="#63eaff" letter-spacing="4">INITIALIZING XR PROFILE</text></g>
<rect x="145" y="820" width="910" height="22" rx="11" fill="#07101d" stroke="#00d9ff" stroke-width="2"/>
<rect x="155" y="826" width="0" height="10" rx="5" fill="url(#bar)" filter="url(#glow)"><animate attributeName="width" values="0;890;890;0" keyTimes="0;0.65;0.85;1" dur="6s" repeatCount="indefinite"/></rect>
<g font-family="monospace" font-size="13" fill="#63eaff"><text x="145" y="865">0%</text><text x="327" y="865">20%</text><text x="509" y="865">40%</text><text x="691" y="865">60%</text><text x="873" y="865">80%</text><text x="1040" y="865">100%</text></g>
<g fill="#63eaff" font-family="monospace" font-size="12"><text x="55" y="755">● CORE ONLINE</text><text x="55" y="780">● TRACKING ACTIVE</text><text x="1145" y="755" text-anchor="end">● UNITY READY</text><text x="1145" y="780" text-anchor="end">● XR PIPELINE READY</text></g>
</svg>